<svg width="100%" height="100%" viewBox="0 0 32 32" version="1.1" xmlns="http://www.w3.org/2000/svg" xmlns:xlink="http://www.w3.org/1999/xlink" xml:space="preserve" xmlns:serif="http://www.serif.com/" style="fill-rule:evenodd;clip-rule:evenodd;stroke-linejoin:round;stroke-miterlimit:2;">
    <g id="Wallet.svg" transform="matrix(0.0961803,0,0,0.0961803,16,16)">
        <g transform="matrix(1,0,0,1,-145.56,-103.41)">
            <clipPath id="_clip1">
                <rect x="0" y="0" width="291.12" height="206.82"/>
            </clipPath>
            <g clip-path="url(#_clip1)">
                <path d="M274.67,98.33C266.37,82.93 251.97,71.83 236.57,64.13C219.87,55.73 200.87,48.93 182.17,47.43C165.97,46.13 148.77,49.93 136.57,61.23C128.17,69.03 121.67,81.73 117.17,91.83C113.37,100.23 110.37,109.13 109.97,118.43C109.27,136.63 119.57,153.53 128.27,168.83C136.57,183.43 146.77,196.93 163.17,202.73C178.87,208.23 196.97,207.63 213.07,204.23C244.87,197.43 273.07,175.53 280.27,142.83C283.57,127.93 282.07,111.93 274.67,98.33Z" style="fill:rgb(219,228,241);fill-rule:nonzero;"/>
                <g>
                    <clipPath id="_clip2">
                        <path d="M117.37,154.83C129.47,147.23 137.67,134.93 143.07,121.93C148.97,107.83 153.47,92.03 153.67,76.73C153.87,63.43 149.77,49.63 139.97,40.33C133.17,33.93 122.47,29.33 113.97,26.23C106.87,23.63 99.47,21.63 91.97,21.83C77.07,22.33 63.87,31.53 51.97,39.43C40.57,47.03 30.17,56.03 26.37,69.73C22.77,82.83 24.17,97.53 27.87,110.43C35.17,135.93 54.47,157.63 81.57,161.73C93.87,163.63 106.67,161.53 117.37,154.83Z"/>
                    </clipPath>
                    <g clip-path="url(#_clip2)">
                        <g>
                            <path d="M38.27,159.23C72.27,139.13 104.37,120.23 136.57,101.23C141.37,98.43 146.17,96.03 150.77,92.73C172.37,77.33 187.37,74.83 203.17,70.43C206.77,69.43 207.97,72.03 211.17,73.33C192.57,84.23 176.17,94.03 159.77,103.43C127.97,121.73 96.17,139.83 64.37,157.83C44.07,169.33 44.07,169.23 38.27,159.23Z" style="fill:rgb(219,228,241);fill-rule:nonzero;"/>
                            <path d="M49.77,174.63C65.77,165.23 79.37,157.13 92.87,149.33C128.27,129.03 163.67,108.73 198.87,88.73C204.27,85.73 213.17,77.83 213.47,83.53C213.57,86.53 200.57,100.93 194.07,104.93C185.27,110.43 176.57,115.63 167.87,120.93C139.87,137.73 111.87,154.33 83.87,171.53C72.27,178.63 66.77,177.93 61.17,177.03C57.77,176.33 54.47,175.63 49.77,174.63Z" style="fill:rgb(219,228,241);fill-rule:nonzero;"/>
                            <path d="M146.77,62.23C136.97,68.53 127.17,71.93 117.77,77.53C106.87,84.03 95.57,91.83 84.47,99.03C70.27,108.23 55.97,117.53 41.77,126.33C33.57,131.53 29.97,134.43 27.17,127.93C25.77,124.83 24.07,121.73 27.97,118.63C35.17,114.53 45.87,106.63 52.27,102.53C70.87,90.63 89.57,78.33 108.27,66.23C115.07,61.83 121.77,57.63 128.47,53.33C142.47,44.33 147.07,46.03 147.27,53.03C147.37,54.63 147.77,55.93 148.37,57.53C148.77,58.33 149.07,60.73 146.77,62.23Z" style="fill:rgb(219,228,241);fill-rule:nonzero;"/>
                            <path d="M157.67,78.93C144.27,86.73 131.37,94.03 118.47,101.73C98.07,113.83 77.57,125.83 56.97,138.63C32.67,153.73 32.57,154.03 32.17,139.13C40.07,134.93 47.37,131.53 54.97,126.73C66.87,119.13 78.97,110.03 90.87,102.43C102.07,95.23 113.27,89.23 124.37,82.73C125.17,82.23 158.47,65.73 162.17,73.23C162.97,74.63 160.37,77.33 157.67,78.93Z" style="fill:rgb(219,228,241);fill-rule:nonzero;"/>
                            <path d="M141.07,37.73C104.57,61.13 65.47,85.83 26.37,110.83C12.07,112.23 13.27,105.43 17.57,97.43C17.97,96.73 29.97,89.23 46.07,79.43C71.97,63.63 108.27,42.13 123.17,34.13C139.17,25.43 140.27,26.53 141.07,37.73Z" style="fill:rgb(219,228,241);fill-rule:nonzero;"/>
                            <path d="M119.97,29.63C116.37,32.73 62.57,63.53 37.17,76.83C27.77,81.73 18.57,90.63 16.47,90.03C13.77,89.23 8.87,82.73 14.27,78.03C25.17,68.43 52.67,53.53 64.27,46.23C75.37,39.23 109.97,20.33 116.67,20.83C121.37,21.33 124.97,25.33 119.97,29.63Z" style="fill:rgb(219,228,241);fill-rule:nonzero;"/>
                            <path d="M2.37,60.43C5.97,57.33 59.77,26.53 85.17,13.23C94.57,8.33 103.77,-0.57 105.87,0.03C108.57,0.83 113.47,7.33 108.07,12.03C97.17,21.63 69.67,36.53 58.07,43.83C46.97,50.83 12.37,69.73 5.67,69.23C0.97,68.73 -2.53,64.63 2.37,60.43Z" style="fill:rgb(219,228,241);fill-rule:nonzero;"/>
                            <path d="M192.07,112.63C165.77,142.83 108.97,176.83 86.67,175.73C121.77,154.73 156.97,133.63 192.07,112.63Z" style="fill:rgb(219,228,241);fill-rule:nonzero;"/>
                        </g>
                    </g>
                </g>
                <g>
                    <path d="M174.47,95.33C174.87,96.13 174.87,97.13 174.47,97.93L139.37,166.53L138.67,167.93C137.27,170.33 135.27,172.33 132.77,173.83C125.07,178.33 115.17,175.63 110.67,167.93C110.57,167.73 110.47,167.53 110.37,167.33L70.97,92.83C69.17,89.43 71.67,85.33 75.47,85.33L164.37,85.33C167.37,85.33 170.17,87.03 171.57,89.63L174.47,95.33Z" style="fill:rgb(0,72,209);fill-rule:nonzero;"/>
                    <path d="M128.47,63.53C132.87,72.33 129.27,79.43 120.57,79.43C111.87,79.43 101.17,72.33 96.77,63.53C92.37,54.73 98.47,50.33 107.27,50.33C116.07,50.33 124.07,54.73 128.47,63.53Z" style="fill:rgb(0,72,209);fill-rule:nonzero;"/>
                    <path d="M165.87,109.33C166.27,110.03 166.27,110.83 165.87,111.43L152.27,167.93L151.67,169.13C150.57,171.13 148.87,172.73 146.77,174.03C140.37,177.73 132.27,175.53 128.57,169.13C128.47,169.03 128.37,168.83 128.37,168.73L96.97,108.13C95.47,105.33 97.57,101.93 100.67,101.93L157.57,101.23C160.07,101.23 162.37,102.63 163.47,104.83L165.87,109.33Z" style="fill:rgb(255,240,185);fill-rule:nonzero;"/>
                    <path d="M159.27,120.73C159.47,121.13 159.47,121.53 159.27,121.93L153.67,154.23L153.37,154.93C152.77,156.03 151.77,157.03 150.57,157.73C146.97,159.83 142.27,158.63 140.17,154.93C140.07,154.83 140.07,154.73 140.07,154.63L122.17,120.23C121.27,118.63 122.47,116.73 124.27,116.73L154.47,116.03C155.87,116.03 157.17,116.83 157.87,118.03L159.27,120.73Z" style="fill:rgb(255,110,112);fill-rule:nonzero;"/>
                    <path d="M289.37,60.73L237.27,162.23C232.87,170.83 224.07,176.13 214.47,176.13L124.47,176.13C128.67,176.13 133.17,172.43 135.97,166.53L135.97,166.43L136.37,165.53L140.77,156.93L192.87,55.23C196.57,47.93 204.07,43.43 212.27,43.43L225.87,43.53C227.77,43.53 228.97,45.53 228.07,47.23L224.17,55.53C218.67,66.43 222.67,75.23 233.07,75.33C244.57,75.33 254.37,70.13 261.67,55.63C262.97,53.03 266.57,45.23 266.57,45.23C266.97,44.33 267.87,43.83 268.87,43.83L278.97,43.83C295.37,43.83 290.97,57.43 289.37,60.73Z" style="fill:rgb(0,72,209);fill-rule:nonzero;"/>
                    <g>
                        <path d="M223.97,95.83L227.67,95.83L223.67,98.33L223.37,102.23L221.27,99.83L217.27,102.23L219.97,98.33L217.87,95.83L221.67,95.83L224.27,92.03L223.97,95.83Z" style="fill:rgb(255,240,185);fill-rule:nonzero;"/>
                        <path d="M204.37,146.33L208.37,146.33L204.27,148.73L204.07,152.53L201.77,150.23L197.67,152.53L200.47,148.73L198.17,146.33L202.07,146.33L204.67,142.73L204.37,146.33Z" style="fill:rgb(255,240,185);fill-rule:nonzero;"/>
                        <path d="M218.17,143.03L222.07,143.03L217.97,145.43L217.77,149.23L215.57,146.83L211.47,149.23L214.17,145.43L211.87,143.03L215.77,143.03L218.37,139.33L218.17,143.03Z" style="fill:rgb(255,240,185);fill-rule:nonzero;"/>
                        <path d="M234.77,99.23L238.57,99.23L234.57,101.53L234.37,105.33L232.17,103.03L228.27,105.33L230.87,101.53L228.67,99.23L232.47,99.23L235.07,95.53L234.77,99.23Z" style="fill:rgb(255,240,185);fill-rule:nonzero;"/>
                        <path d="M240.17,108.43L243.97,108.43L240.07,110.83L239.87,114.63L237.67,112.33L233.67,114.63L236.37,110.83L234.17,108.43L237.97,108.43L240.47,104.83L240.17,108.43Z" style="fill:rgb(255,240,185);fill-rule:nonzero;"/>
                        <path d="M230.77,133.83L234.67,133.83L230.57,136.23L230.47,140.03L228.17,137.73L224.17,140.03L226.87,136.23L224.57,133.83L228.47,133.83L230.97,130.23L230.77,133.83Z" style="fill:rgb(255,240,185);fill-rule:nonzero;"/>
                        <path d="M238.97,120.93L242.77,120.93L238.87,123.33L238.67,127.13L236.37,124.83L232.47,127.13L235.07,123.33L232.77,120.93L236.67,120.93L239.17,117.33L238.97,120.93Z" style="fill:rgb(255,240,185);fill-rule:nonzero;"/>
                        <path d="M210.37,99.23L214.17,99.23L210.17,101.63L209.87,105.43L207.67,103.03L203.77,105.43L206.47,101.63L204.37,99.23L208.07,99.23L210.67,95.53L210.37,99.23Z" style="fill:rgb(255,240,185);fill-rule:nonzero;"/>
                        <path d="M197.97,108.53L201.77,108.53L197.77,110.93L197.37,114.63L195.27,112.33L191.27,114.63L193.97,110.93L191.87,108.53L195.67,108.53L198.27,104.83L197.97,108.53Z" style="fill:rgb(255,240,185);fill-rule:nonzero;"/>
                        <path d="M189.57,121.03L193.47,121.03L189.37,123.43L189.07,127.13L186.87,124.83L182.87,127.13L185.57,123.43L183.47,121.03L187.27,121.03L189.97,117.33L189.57,121.03Z" style="fill:rgb(255,240,185);fill-rule:nonzero;"/>
                        <path d="M187.67,133.93L191.57,133.93L187.47,136.23L187.17,140.03L184.97,137.73L180.87,140.03L183.67,136.23L181.47,133.93L185.37,133.93L187.97,130.23L187.67,133.93Z" style="fill:rgb(255,240,185);fill-rule:nonzero;"/>
                        <path d="M193.07,143.03L196.97,143.03L192.87,145.43L192.57,149.23L190.37,146.93L186.27,149.23L189.07,145.43L186.77,143.03L190.67,143.03L193.37,139.33L193.07,143.03Z" style="fill:rgb(255,240,185);fill-rule:nonzero;"/>
                    </g>
                </g>
            </g>
        </g>
    </g>
</svg>
